<?xml version="1.0" standalone="no"?><svg xmlns="http://www.w3.org/2000/svg" viewBox="0 0 1440 320"><path fill="#f3f4f5" fill-opacity="1" d="M0,32L34.3,42.7C68.6,53,137,75,206,117.3C274.3,160,343,224,411,224C480,224,549,160,617,144C685.7,128,754,160,823,192C891.4,224,960,256,1029,234.7C1097.1,213,1166,139,1234,96C1302.9,53,1371,43,1406,37.3L1440,32L1440,0L1405.7,0C1371.4,0,1303,0,1234,0C1165.7,0,1097,0,1029,0C960,0,891,0,823,0C754.3,0,686,0,617,0C548.6,0,480,0,411,0C342.9,0,274,0,206,0C137.1,0,69,0,34,0L0,0Z"></path></svg>