 <svg  version="1.0" xmlns="http://www.w3.org/2000/svg"  width="300.000000pt" height="282.000000pt" viewBox="0 0 300.000000 282.000000"  preserveAspectRatio="xMidYMid meet">  <g transform="translate(0.000000,282.000000) scale(0.100000,-0.100000)" fill="#000000" stroke="none"> <path d="M1351 2730 c-323 -68 -562 -290 -647 -600 -23 -83 -26 -309 -5 -390 37 -144 117 -286 221 -390 72 -72 130 -112 234 -161 104 -48 194 -70 318 -74 95 -4 97 -4 150 -45 55 -42 200 -120 224 -120 10 0 11 6 5 23 -10 26 -13 72 -12 158 l1 56 68 39 c82 48 234 197 281 276 82 140 115 262 115 423 0 141 -17 220 -76 345 -96 208 -263 356 -488 431 -82 27 -112 32 -220 35 -69 2 -145 -1 -169 -6z m692 -593 c16 -11 11 -21 -53 -107 -38 -52 -81 -119 -95 -147 -20 -43 -30 -53 -49 -53 -14 0 -27 3 -29 8 -7 12 108 254 136 285 27 29 62 35 90 14z m-788 -37 c3 -5 10 -49 16 -97 6 -48 20 -122 31 -163 31 -115 31 -116 13 -133 -31 -32 -64 -16 -80 40 0 1 -50 -9 -111 -21 -79 -16 -117 -29 -132 -44 -48 -48 -82 17 -38 71 56 68 134 175 176 242 24 39 53 80 64 93 20 23 50 29 61 12z m496 -21 c33 -23 44 -55 36 -105 -10 -59 -42 -91 -139 -138 -97 -48 -97 -49 -15 -75 43 -14 48 -36 12 -53 -24 -11 -55 -5 -156 28 -12 4 -18 -2 -23 -21 -9 -34 -51 -55 -70 -34 -11 12 -10 31 11 119 14 64 21 118 18 138 -6 30 -2 38 35 73 97 92 218 120 291 68z m83 -285 c21 -8 20 -32 -4 -71 -25 -42 -70 -47 -70 -8 0 33 20 73 39 78 9 3 17 5 18 6 1 0 8 -2 17 -5z"/> <path d="M1136 1890 c-32 -50 -57 -92 -55 -94 5 -4 136 28 143 35 6 6 -16 149 -23 149 -3 0 -33 -41 -65 -90z"/> <path d="M1572 2011 c-44 -21 -62 -48 -77 -118 -6 -32 -5 -33 25 -33 91 0 190 58 190 112 0 52 -68 71 -138 39z"/> <path d="M2391 912 c-29 -28 -74 -148 -87 -231 -6 -35 -10 -40 -43 -46 -46 -9 -106 -71 -122 -127 -13 -46 -54 -98 -76 -98 -26 0 -25 31 0 109 14 42 23 87 20 99 -5 22 -37 30 -48 12 -3 -5 -25 -7 -48 -4 -55 8 -102 -23 -136 -91 -33 -63 -36 -152 -7 -184 26 -28 84 -28 115 0 20 19 24 20 40 5 26 -23 46 -20 84 14 39 33 47 36 47 16 0 -7 9 -25 21 -40 28 -36 85 -36 129 0 l31 27 23 -22 c30 -28 68 -27 104 4 l30 25 20 -34 c39 -65 139 -53 207 25 l30 35 15 -40 c28 -75 102 -87 140 -23 26 41 25 49 -2 42 -51 -12 -68 34 -55 142 l9 72 51 11 c75 16 107 51 73 79 -11 9 -21 7 -48 -9 -50 -31 -58 -27 -58 30 0 45 -3 52 -26 60 -41 16 -44 13 -44 -55 l0 -65 -30 0 c-24 0 -30 -4 -30 -21 0 -12 8 -23 20 -26 23 -6 24 -9 8 -71 -30 -123 -157 -209 -195 -132 -12 24 -10 26 35 46 68 30 104 76 100 128 -2 33 -8 43 -31 54 -58 28 -145 -42 -177 -143 -7 -22 -19 -50 -26 -62 -23 -37 -84 -25 -84 16 0 8 16 52 35 97 45 104 75 222 75 291 0 60 -11 87 -41 103 -16 9 -24 6 -48 -18z m46 -139 c-5 -61 -61 -243 -74 -243 -16 0 21 211 49 283 19 50 31 31 25 -40z m-164 -205 c11 -10 17 -32 18 -82 2 -57 -1 -71 -16 -82 -27 -20 -53 -17 -66 7 -16 31 -6 124 16 149 21 23 26 24 48 8z m355 -19 c2 -19 -5 -33 -28 -53 -32 -26 -60 -34 -60 -17 0 5 5 22 11 38 24 63 71 83 77 32z m-649 7 c8 -9 10 -32 5 -67 -15 -116 -104 -119 -91 -2 7 68 55 106 86 69z"/> <path d="M835 904 c-47 -48 -91 -200 -102 -352 -6 -92 -7 -94 -47 -139 -49 -54 -73 -53 -99 2 -23 49 -21 61 11 73 65 24 90 83 58 141 l-14 25 -17 -35 c-18 -36 -54 -79 -66 -79 -7 0 -15 62 -28 233 -9 112 -21 140 -54 135 -15 -2 -23 -19 -38 -78 -24 -95 -65 -220 -94 -286 l-23 -51 -78 -6 c-108 -9 -152 -23 -191 -62 -35 -35 -42 -73 -22 -118 26 -58 116 -68 194 -23 38 23 123 118 137 155 1 4 29 10 61 13 55 5 58 4 63 -21 23 -104 45 -144 85 -156 26 -8 101 35 129 75 24 34 40 39 40 12 0 -34 29 -62 64 -62 39 0 76 26 107 77 l22 36 20 -42 c22 -46 44 -62 88 -63 46 -2 79 22 105 74 17 34 30 48 45 48 11 0 28 4 38 9 15 9 19 3 30 -38 16 -64 44 -94 83 -89 26 4 29 2 26 -20 -3 -23 -6 -24 -88 -26 -100 -2 -143 -20 -167 -72 -20 -42 -11 -78 29 -107 33 -25 114 -33 162 -17 37 12 106 82 106 108 0 11 8 13 33 8 102 -20 127 -19 152 4 15 14 25 35 25 51 0 26 -1 27 -37 18 -60 -14 -133 -11 -139 5 -8 21 54 275 77 314 20 34 20 37 3 49 -50 36 -77 4 -110 -128 -27 -107 -37 -129 -60 -129 -21 0 -38 106 -26 161 12 51 7 85 -14 93 -36 14 -64 -25 -64 -89 0 -26 -6 -39 -25 -51 -29 -19 -56 -12 -53 13 4 47 -4 76 -27 98 -29 30 -39 31 -65 5 -33 -33 -20 -112 24 -149 14 -11 14 -16 1 -41 -29 -57 -75 -40 -94 36 -12 45 -11 48 24 107 70 117 101 250 72 307 -14 28 -51 38 -73 19 -42 -34 -84 -180 -99 -336 -10 -107 -75 -198 -113 -159 -8 7 -16 34 -19 57 -4 38 1 55 36 120 22 42 50 102 62 135 23 67 28 168 10 202 -14 26 -52 29 -76 6z m42 -143 c-3 -32 -17 -86 -32 -120 -26 -58 -47 -81 -40 -43 2 9 9 46 15 82 24 130 68 193 57 81z m178 -90 c-8 -26 -22 -57 -30 -67 -13 -18 -14 -18 -15 -1 0 28 31 160 44 182 19 34 20 -58 1 -114z m-584 -106 l3 -60 -43 -3 c-39 -3 -43 -1 -36 15 15 37 55 164 56 181 2 28 17 -69 20 -133z m-181 -133 c0 -15 -50 -75 -77 -94 -39 -25 -69 -23 -89 7 -15 23 -15 27 0 50 9 13 31 29 49 34 40 12 117 14 117 3z m1049 -211 c34 -22 -44 -121 -95 -121 -31 0 -64 33 -64 65 0 42 33 65 93 65 28 0 58 -4 66 -9z"/> <path d="M1972 829 c-43 -28 -65 -70 -53 -102 18 -47 79 -50 122 -8 67 68 9 160 -69 110z"/> <path d="M1701 615 c-31 -28 -41 -33 -48 -22 -8 15 -45 37 -61 37 -5 0 -12 -44 -16 -97 -3 -54 -9 -126 -12 -159 -7 -70 2 -82 46 -64 27 11 28 15 32 88 5 116 69 227 98 173 5 -11 10 -31 10 -45 0 -24 2 -25 27 -15 15 6 31 16 35 22 24 37 -13 117 -53 117 -10 0 -37 -16 -58 -35z"/> </g> </svg> 